<svg xmlns="http://www.w3.org/2000/svg" viewBox="0 0 64 64">
  <defs>
    <linearGradient id="g" x1="0" y1="0" x2="1" y2="1">
      <stop offset="0%" stop-color="#496a52"/>
      <stop offset="100%" stop-color="#2f5141"/>
    </linearGradient>
  </defs>
  <circle cx="32" cy="32" r="30" fill="url(#g)"/>
  <path d="M20 48 C16 36 20 24 32 14 C28 24 28 34 32 44 C34 48 36 50 40 50 C36 44 34 38 36 32 C38 38 40 42 44 46 C42 38 40 30 44 22 C40 26 36 28 32 28 C28 28 24 26 22 22 C22 30 24 38 20 48Z" fill="#fff" opacity="0.9"/>
</svg>
